<svg width="361" height="134" viewBox="0 0 361 134" fill="none" xmlns="http://www.w3.org/2000/svg">
<g clip-path="url(#clip0_3_33)">
<path d="M62.1177 126.844C79.3686 122.918 93.6168 119.668 93.7805 119.624L94.078 119.542L77.7915 94.5823C68.8339 80.8542 61.505 69.569 61.505 69.5039C61.505 69.3807 78.3222 9.71175 78.4167 9.49947C78.4483 9.42849 89.8929 34.8866 106.159 71.2116C121.388 105.22 133.943 133.26 134.06 133.522L134.272 134L82.5124 133.991L30.7525 133.983L62.1177 126.844ZM260.611 120.807C252.732 120.157 248.15 114.376 246.935 103.556C246.612 100.678 246.611 100.603 246.578 81.918L246.546 63.8337H250.033H253.52L253.547 81.3259C253.572 97.0912 253.588 98.9396 253.705 100.049C254.18 104.55 255.125 107.576 256.734 109.749C258.022 111.488 259.529 112.506 261.616 113.046C262.601 113.301 265.402 113.301 266.299 113.047C268.415 112.447 270.111 111.261 271.607 109.334C273.312 107.138 274.573 104.022 275.184 100.499L275.389 99.3118L275.412 81.6715L275.435 64.0312H278.995H282.555V91.7623V119.493H279.032H275.509V115.093C275.509 112.104 275.483 110.705 275.429 110.728C275.386 110.746 275.205 111.103 275.027 111.52C273.813 114.373 271.79 116.982 269.573 118.554C266.916 120.438 264.252 121.108 260.611 120.807ZM340.582 120.763C337.801 120.493 334.872 119.261 332.479 117.354C327.434 113.333 324.449 106.705 323.575 97.5846C323.272 94.4285 323.236 90.189 323.489 87.5072C324.052 81.5148 325.88 75.6322 328.482 71.4325C329.15 70.3559 330.663 68.4059 331.499 67.5464C333.755 65.2252 336.394 63.6021 339.196 62.8123C340.829 62.3521 343.704 62.136 345.439 62.3432C349.796 62.8635 353.79 65.5069 356.504 69.6675C359.262 73.8946 360.778 79.8012 360.971 87.0744C361.002 88.2142 361.009 90.2127 360.988 91.5153L360.949 93.8838L345.688 93.9087L330.426 93.9336V94.8111C330.426 97.4823 330.93 100.525 331.802 103.113C332.553 105.346 333.847 107.783 334.906 108.963C337.077 111.381 339.735 112.829 342.643 113.178C343.721 113.307 346.469 113.171 347.698 112.927C351.204 112.233 354.537 110.462 357.229 107.861C357.546 107.555 357.849 107.27 357.903 107.226C357.981 107.163 358 107.962 357.998 111.322L357.995 115.496L357.274 116.071C354.229 118.497 350.741 120.055 347.047 120.639C345.945 120.813 341.9 120.89 340.582 120.763ZM353.864 85.5552C353.864 81.0807 352.401 76.1101 350.33 73.5506C348.852 71.724 347.065 70.6077 344.941 70.1838C343.936 69.9833 341.818 70.0605 340.759 70.3363C338.519 70.9194 336.667 72.188 335.051 74.2451C333.35 76.4101 332.075 79.0396 331.274 82.0356C330.985 83.1129 330.648 84.8817 330.543 85.8655L330.494 86.3343H342.179H353.864V85.5552ZM146.847 119.37C146.865 119.302 152.047 101.76 158.363 80.3887L169.847 41.5311L173.537 41.5308L177.227 41.5305L177.533 42.542C178.469 45.6332 200.523 119.409 200.523 119.447C200.523 119.472 198.757 119.493 196.598 119.492L192.672 119.491L189.493 108.587L186.315 97.6834L173.516 97.6832L160.717 97.683L160.606 98.0531C160.545 98.2566 159.187 103.163 157.588 108.956L154.682 119.489L150.748 119.491C147.634 119.492 146.821 119.467 146.847 119.37ZM183.979 89.3621C183.979 89.3449 181.84 81.873 179.225 72.7581C174.334 55.7056 174.06 54.6796 173.674 51.9419C173.493 50.6581 173.401 50.6225 173.293 51.7939C173.216 52.6312 172.883 54.5047 172.626 55.544C172.499 56.0596 170.296 63.8487 167.731 72.8531C165.167 81.8575 163.069 89.2627 163.069 89.3091C163.069 89.3556 167.773 89.3936 173.524 89.3936C179.274 89.3936 183.979 89.3794 183.979 89.3621ZM202.897 118.073V116.653L215.649 94.0673L228.4 71.4819L216.855 71.4325L205.31 71.3832L205.29 67.6084L205.27 63.8337H221.968H238.667V65.1086V66.3835L225.914 89.0922C218.9 101.582 213.161 111.822 213.161 111.847C213.161 111.873 218.831 111.894 225.761 111.894H238.36V115.694V119.493H220.629H202.897V118.073ZM296.47 119.427C296.442 119.391 296.419 106.868 296.419 91.5976V63.8337H299.904H303.389V69.5575C303.389 72.7056 303.418 75.2813 303.455 75.2813C303.491 75.2813 303.661 74.766 303.832 74.1362C304.615 71.2501 305.974 68.5533 307.725 66.41C309.302 64.4792 311.104 63.3246 313.231 62.8827C313.828 62.7586 314.334 62.7349 315.529 62.775C317.029 62.8254 317.814 62.9667 318.727 63.3511L319.014 63.472V68.1329V72.7937L318.19 72.2626C316.736 71.3246 315.301 70.9533 313.576 71.0689C312.453 71.1442 311.716 71.3299 310.818 71.764C308.971 72.657 307.473 74.2334 306.427 76.3851C304.911 79.5001 303.83 83.5041 303.512 87.1842C303.454 87.8446 303.421 93.2232 303.407 103.827L303.387 119.493H299.954C298.066 119.493 296.498 119.463 296.47 119.427ZM0 119.232C0 119.197 7.67414 102.033 17.0536 81.0895L34.1073 43.0107L53.9813 21.5216C64.912 9.70267 73.8847 0.0181477 73.9207 0.000485482C73.9567 -0.0171733 73.8129 0.44912 73.6012 1.0367C73.3895 1.62428 63.6783 28.4618 52.0208 60.6757L30.8253 119.246L15.4127 119.271C6.9357 119.285 0 119.267 0 119.232Z" fill="white" fill-opacity="0.6"/>
</g>
<defs>
<clipPath id="clip0_3_33">
<rect width="361" height="134" fill="white"/>
</clipPath>
</defs>
</svg>
