<svg width="569" height="389" viewBox="0 0 569 389" fill="none" xmlns="http://www.w3.org/2000/svg">
<g filter="url(#filter0_d_0_5)">
<g opacity="0.3">
<path d="M290.227 239.6C285.227 229.9 281.327 219.9 278.427 209.7C278.494 208.833 278.561 207.933 278.627 207C281.327 218.1 285.127 229 290.227 239.6V239.6Z" fill="#EAEAEA"/>
</g>
<path fill-rule="evenodd" clip-rule="evenodd" d="M564.627 220.3C564.627 273.2 539.027 320 499.427 349.2C472.927 368.7 440.127 380.3 404.627 380.3C375.427 380.3 348.027 372.4 324.427 358.7C276.727 331 244.627 279.4 244.627 220.3C244.627 183.5 257.027 149.7 277.827 122.7C307.127 84.7 353.027 60.3 404.627 60.3C440.727 60.3 474.027 72.2 500.827 92.4C539.627 121.6 564.627 168 564.627 220.3V220.3ZM484.327 220.3C484.327 176.3 448.627 140.6 404.627 140.6C360.627 140.6 324.927 176.3 324.927 220.3C324.927 264.3 360.627 299.9 404.627 299.9C448.627 299.9 484.327 264.3 484.327 220.3V220.3Z" fill="url(#paint0_linear_0_5)"/>
<path d="M245.627 203C250.727 224.6 260.427 245.5 274.827 264.2C329.627 335.6 431.927 349 503.327 294.2C512.727 287.1 521.027 279.1 528.327 270.4C546.027 249.7 557.727 225.4 563.327 199.8C570.727 257.1 546.827 316.8 495.127 352.4C493.727 353.4 492.294 354.333 490.827 355.2C422.527 399 330.527 384.1 279.627 320.2C252.127 285.7 241.127 243.5 245.627 203V203Z" fill="url(#paint1_linear_0_5)"/>
<g opacity="0.3">
<path d="M564.227 208.5C558.227 232.4 546.927 255 530.327 274.4C523.027 283 514.727 291 505.327 298.2C433.927 353 331.627 339.6 276.827 268.2C269.827 259.1 263.927 249.5 259.227 239.6C263.527 248.1 268.827 256.3 274.827 264.2C329.627 335.6 431.927 349 503.327 294.2C512.727 287 521.027 279 528.327 270.4C546.027 249.7 557.727 225.4 563.327 199.7C563.727 202.633 564.027 205.567 564.227 208.5Z" fill="#EAEAEA"/>
</g>
<g opacity="0.2">
<path d="M500.827 92.4C431.027 85.9 349.727 114.6 311.627 181C263.427 264.9 324.427 358.7 324.427 358.7C276.727 331 244.627 279.4 244.627 220.3C244.627 183.5 257.027 149.7 277.827 122.7C307.127 84.7 353.027 60.3 404.627 60.3C440.727 60.3 474.027 72.2 500.827 92.4V92.4Z" fill="#1E023F"/>
</g>
<path d="M515.227 104.7C495.027 95.6 472.527 90.6 448.927 90.6C358.927 90.6 286.027 163.6 286.027 253.6C286.027 265.4 287.227 276.9 289.627 288C295.327 314.5 307.527 338.7 324.427 358.7C274.427 329.7 241.627 274.4 244.827 211.7C244.961 209.967 245.094 208.233 245.227 206.5C252.027 125.6 319.927 61.8 401.627 60.3C445.727 59.5 485.827 76.5 515.227 104.7V104.7Z" fill="url(#paint2_linear_0_5)"/>
<g opacity="0.3">
<path d="M515.227 104.7C495.027 95.6 472.527 90.6 448.927 90.6C358.927 90.6 286.027 163.6 286.027 253.6C286.027 265.4 287.227 276.9 289.627 288C295.327 314.5 307.527 338.7 324.427 358.7C322.827 357.767 321.261 356.833 319.727 355.9C303.127 336 291.227 312.2 285.627 286C283.227 274.9 282.027 263.4 282.027 251.6C282.027 161.6 354.927 88.6 444.927 88.6C468.527 88.6 491.027 93.6 511.227 102.7C500.327 92.2 487.827 83.2 474.227 76.2C489.427 83.5 503.227 93.1 515.227 104.7V104.7Z" fill="#EAEAEA"/>
</g>
<path d="M437.927 220.3C437.927 238.7 423.027 253.6 404.627 253.6C386.227 253.6 371.327 238.7 371.327 220.3C371.327 201.9 386.227 187 404.627 187C423.027 187 437.927 201.9 437.927 220.3Z" fill="url(#paint3_linear_0_5)"/>
<g opacity="0.2">
<path d="M564.627 220.3C564.627 273.2 539.027 320 499.427 349.2C527.327 287.5 533.027 197.8 472.427 146.2C375.927 64 280.027 121.3 277.827 122.7C307.127 84.7 353.027 60.3 404.627 60.3C493.027 60.3 564.627 131.9 564.627 220.3V220.3Z" fill="#1E023F"/>
</g>
<path d="M504.827 345C516.427 326.1 524.327 304.5 527.427 281.1C539.127 191.9 476.327 110 387.027 98.3C375.327 96.8 363.827 96.5 352.527 97.4C325.427 99.6 299.927 108.5 277.827 122.7C313.127 76.9 372.227 51.6 434.027 63C435.694 63.3333 437.361 63.6667 439.027 64C518.327 81.3 572.827 156.9 563.627 238.1C558.727 282 536.527 319.5 504.827 345V345Z" fill="url(#paint4_linear_0_5)"/>
<g opacity="0.3">
<path d="M387.027 98.3C375.327 96.8 363.827 96.5 352.527 97.4C325.427 99.6 299.927 108.5 277.827 122.7C279.294 120.833 280.794 118.967 282.327 117.1C303.827 103.9 328.427 95.5 354.527 93.4C365.827 92.5 377.327 92.8 389.027 94.3C478.327 106 541.127 187.9 529.427 277.1C526.927 296.1 521.227 314 512.927 330.1C520.127 315 525.127 298.6 527.427 281.1C539.127 191.9 476.327 110 387.027 98.3Z" fill="#EAEAEA"/>
</g>
<g opacity="0.3">
<path d="M512.827 330.3C511.161 333.767 509.394 337.133 507.527 340.4C507.327 340.667 507.094 340.867 506.827 341C508.961 337.533 510.961 333.967 512.827 330.3Z" fill="#EAEAEA"/>
</g>
<path d="M324.027 220.3C324.027 308.6 252.427 380.3 164.027 380.3C136.927 380.3 111.327 373.5 89.0275 361.6C88.8941 361.533 88.7608 361.467 88.6275 361.4C88.1608 361.133 87.6941 360.867 87.2275 360.6C86.0941 360 84.9608 359.367 83.8275 358.7C33.8275 329.7 0.927464 274.4 4.22746 211.7C4.29413 209.967 4.42747 208.233 4.62747 206.5C5.32747 197.8 6.82748 189.3 8.92748 181C26.2275 112.6 88.1275 61.6 160.927 60.3C205.127 59.5 245.227 76.5 274.627 104.7C275.494 105.5 276.327 106.3 277.127 107.1L220.327 163.9C205.927 149.5 186.027 140.6 164.027 140.6C118.227 140.6 81.5275 179.2 84.5275 225.6C87.1275 265.5 119.827 297.8 159.827 299.8C167.827 300.2 175.627 299.5 183.027 297.6C187.027 296.7 190.427 294.4 192.827 291.3C195.227 288.2 196.627 284.3 196.627 280.2C196.627 275.4 194.727 270.9 191.327 267.5L168.127 244.3C165.527 241.7 164.027 238.1 164.027 234.4C164.027 226.6 170.327 220.3 178.127 220.3H324.027Z" fill="url(#paint5_linear_0_5)"/>
<g opacity="0.2">
<path d="M324.027 220.3C324.027 308.6 252.427 380.3 164.027 380.3C136.927 380.3 111.327 373.5 89.0275 361.6C88.8941 361.533 88.7608 361.467 88.6275 361.4C88.1608 361.133 87.6941 360.867 87.2275 360.6C86.0941 360 84.9608 359.367 83.8275 358.7C33.8275 329.7 0.927464 274.4 4.22746 211.7C4.29413 209.967 4.42747 208.233 4.62747 206.5C5.32747 197.8 6.82748 189.3 8.92748 181C23.7275 250.4 73.1275 329.3 170.027 328.6C282.627 327.7 319.927 220.3 319.927 220.3H324.027Z" fill="#1E023F"/>
</g>
<path d="M324.027 220.3C324.027 308.6 252.427 380.3 164.027 380.3C134.827 380.3 107.327 372.4 83.8275 358.7C33.8275 329.7 0.927464 274.4 4.22746 211.7C4.29413 209.967 4.42747 208.233 4.62747 206.5C11.3275 238 27.0275 266.1 49.0275 288C78.5275 317.3 119.127 335.5 164.027 335.5C237.427 335.5 299.527 287 319.927 220.3H324.027Z" fill="url(#paint6_linear_0_5)"/>
<g opacity="0.4">
<path d="M324.027 220.3C324.027 221.633 323.994 222.967 323.927 224.3H321.927C301.527 291 239.427 339.5 166.027 339.5C121.127 339.5 80.5275 321.3 51.0275 292C37.9275 279 27.1275 263.8 19.0275 247C26.8275 262.2 37.0275 276 49.0275 288C78.5275 317.3 119.127 335.5 164.027 335.5C237.427 335.5 299.527 287 319.927 220.3H324.027Z" fill="#EAEAEA"/>
</g>
<g opacity="0.7">
<path d="M19.0275 247C13.6275 236.6 9.32751 225.5 6.32751 213.8C6.39418 212.733 6.49418 211.633 6.62752 210.5C9.32752 223.3 13.5275 235.5 19.0275 247V247Z" fill="#EAEAEA"/>
</g>
<g opacity="0.2">
<path d="M277.127 107.1C275.427 106.4 166.627 64.4 92.3275 150.3C19.1275 235 65.8275 347.2 87.2275 360.6C86.0941 360 84.9608 359.367 83.8275 358.7C33.8275 329.7 0.927464 274.4 4.22746 211.7C4.29413 209.967 4.42747 208.233 4.62747 206.5C11.4275 125.6 79.3275 61.8 160.927 60.3C205.127 59.5 245.227 76.5 274.627 104.7C275.494 105.5 276.327 106.3 277.127 107.1Z" fill="#1E023F"/>
</g>
<path d="M274.627 104.7C254.427 95.6 231.927 90.6 208.327 90.6C118.327 90.6 45.3275 163.6 45.3275 253.6C45.3275 265.4 46.6275 276.9 49.0275 288C54.7275 314.5 66.8275 338.7 83.8275 358.7C33.8275 329.7 0.927464 274.4 4.22746 211.7C4.29413 209.967 4.42747 208.233 4.62747 206.5C11.4275 125.6 79.3275 61.8 160.927 60.3C205.127 59.5 245.227 76.5 274.627 104.7V104.7Z" fill="url(#paint7_linear_0_5)"/>
<g opacity="0.7">
<path d="M274.628 104.7C254.428 95.6 231.928 90.6 208.328 90.6C118.328 90.6 45.3275 163.6 45.3275 253.6C45.3275 265.4 46.6275 276.9 49.0275 288C51.7275 300.7 55.9275 312.8 61.4275 324.3C54.9275 311.7 50.0275 298.2 47.0275 284C44.6275 272.9 43.3275 261.4 43.3275 249.6C43.3275 159.6 116.328 86.6 206.328 86.6C228.228 86.6 249.028 90.9 268.128 98.7C270.328 100.633 272.494 102.633 274.628 104.7V104.7Z" fill="#EAEAEA"/>
</g>
<path d="M325.527 33.3C325.527 46.3 315.027 56.8 302.027 56.8C289.027 56.8 278.527 46.3 278.527 33.3C278.527 20.4 289.027 9.89999 302.027 9.89999C315.027 9.89999 325.527 20.4 325.527 33.3Z" fill="url(#paint8_linear_0_5)"/>
<path d="M261.827 35.1C261.827 41.6 256.627 46.8 250.127 46.8C243.727 46.8 238.427 41.6 238.427 35.1C238.427 28.7 243.727 23.4 250.127 23.4C256.627 23.4 261.827 28.7 261.827 35.1Z" fill="url(#paint9_linear_0_5)"/>
<path d="M271.927 6.2C271.927 9.7 269.127 12.4 265.727 12.4C262.327 12.4 259.527 9.7 259.527 6.2C259.527 2.8 262.327 0 265.727 0C269.127 0 271.927 2.8 271.927 6.2Z" fill="url(#paint10_linear_0_5)"/>
</g>
<defs>
<filter id="filter0_d_0_5" x="0" y="0" width="568.645" height="388.3" filterUnits="userSpaceOnUse" color-interpolation-filters="sRGB">
<feFlood flood-opacity="0" result="BackgroundImageFix"/>
<feColorMatrix in="SourceAlpha" type="matrix" values="0 0 0 0 0 0 0 0 0 0 0 0 0 0 0 0 0 0 127 0" result="hardAlpha"/>
<feOffset dy="4"/>
<feGaussianBlur stdDeviation="2"/>
<feComposite in2="hardAlpha" operator="out"/>
<feColorMatrix type="matrix" values="0 0 0 0 0 0 0 0 0 0 0 0 0 0 0 0 0 0 0.25 0"/>
<feBlend mode="normal" in2="BackgroundImageFix" result="effect1_dropShadow_0_5"/>
<feBlend mode="normal" in="SourceGraphic" in2="effect1_dropShadow_0_5" result="shape"/>
</filter>
<linearGradient id="paint0_linear_0_5" x1="244.627" y1="60.3" x2="564.627" y2="60.3" gradientUnits="userSpaceOnUse">
<stop stop-color="#21489F"/>
<stop offset="1" stop-color="#2B58A7"/>
</linearGradient>
<linearGradient id="paint1_linear_0_5" x1="244.627" y1="199.8" x2="564.627" y2="199.8" gradientUnits="userSpaceOnUse">
<stop stop-color="#5F4A9F"/>
<stop offset="1" stop-color="#F17785"/>
</linearGradient>
<linearGradient id="paint2_linear_0_5" x1="244.627" y1="60.3" x2="515.227" y2="60.3" gradientUnits="userSpaceOnUse">
<stop stop-color="#404CA0"/>
<stop offset="1" stop-color="#B42D93"/>
</linearGradient>
<linearGradient id="paint3_linear_0_5" x1="349.027" y1="198.1" x2="428.927" y2="158.4" gradientUnits="userSpaceOnUse">
<stop stop-color="#236AB4"/>
<stop offset="1" stop-color="#01B5BC"/>
</linearGradient>
<linearGradient id="paint4_linear_0_5" x1="277.827" y1="60.3" x2="564.627" y2="60.3" gradientUnits="userSpaceOnUse">
<stop stop-color="#5F4A9F"/>
<stop offset="1" stop-color="#ED388D"/>
</linearGradient>
<linearGradient id="paint5_linear_0_5" x1="4.02746" y1="60.3" x2="324.027" y2="60.3" gradientUnits="userSpaceOnUse">
<stop stop-color="#236AB4"/>
<stop offset="1" stop-color="#128FD0"/>
</linearGradient>
<linearGradient id="paint6_linear_0_5" x1="4.02746" y1="206.5" x2="324.027" y2="206.5" gradientUnits="userSpaceOnUse">
<stop stop-color="#236AB4"/>
<stop offset="1" stop-color="#01B5BC"/>
</linearGradient>
<linearGradient id="paint7_linear_0_5" x1="-187.573" y1="153.5" x2="99.3275" y2="-8.3" gradientUnits="userSpaceOnUse">
<stop stop-color="#236AB4"/>
<stop offset="1" stop-color="#01B5BC"/>
</linearGradient>
<linearGradient id="paint8_linear_0_5" x1="261.827" y1="26.1" x2="309.427" y2="-20.2" gradientUnits="userSpaceOnUse">
<stop stop-color="#5F4A9F"/>
<stop offset="1" stop-color="#F17785"/>
</linearGradient>
<linearGradient id="paint9_linear_0_5" x1="229.927" y1="29.2" x2="256.827" y2="11" gradientUnits="userSpaceOnUse">
<stop stop-color="#236AB4"/>
<stop offset="1" stop-color="#01B5BC"/>
</linearGradient>
<linearGradient id="paint10_linear_0_5" x1="259.527" y1="0" x2="271.927" y2="0" gradientUnits="userSpaceOnUse">
<stop stop-color="#236AB4"/>
<stop offset="1" stop-color="#128FD0"/>
</linearGradient>
</defs>
</svg>
