<svg width="284" height="129" viewBox="0 0 284 129" fill="none" xmlns="http://www.w3.org/2000/svg">
<path d="M154.59 19.2358L157.555 19.2843L165.611 11.7537L166 8.56271C159.598 3.23948 151.174 0 141.955 0C125.263 0 111.173 10.6174 107 25C107.881 24.4258 109.76 24.8546 109.76 24.8546L125.861 22.3784C125.861 22.3784 126.691 21.0942 127.106 21.1742C130.562 17.6397 135.33 15.4712 140.438 15.111C145.546 14.7508 150.606 16.2261 154.59 19.2358Z" fill="white" fill-opacity="0.6"/>
<path d="M176.762 24.7276C174.921 18.2608 171.144 12.4473 165.895 8L154.548 18.835C156.877 20.6222 158.756 22.8853 160.047 25.4578C161.339 28.0303 162.009 30.8466 162.01 33.6994V35.6119C167.531 35.6119 172.011 39.9021 172.011 45.1621C172.011 50.4221 167.518 54.7123 162.01 54.7123H142.003L140 56.6322V68.0973L142.003 70H162.01C168.901 69.9824 175.503 67.3597 180.374 62.7054C185.244 58.0512 187.986 51.7443 188 45.1646C187.99 36.7072 183.525 29.2147 176.736 24.7276H176.762Z" fill="white" fill-opacity="0.6"/>
<path d="M121.4 69.995H141V54.8462H121.4C120.008 54.8468 118.632 54.5582 117.366 54L114.537 54.8365L106.687 62.4157L106 64.9763C110.417 68.2505 115.834 70.0173 121.402 69.9999L121.4 69.995Z" fill="white" fill-opacity="0.6"/>
<path d="M122.168 21C115.231 21.0103 108.581 23.594 103.676 28.1849C98.7714 32.7757 96.011 38.9994 96 45.4919C96 49.2725 96.9363 53.0016 98.7355 56.3865C100.535 59.7713 103.148 62.7196 106.37 65L118.035 54.0813C116.268 53.3371 114.768 52.1311 113.716 50.6082C112.664 49.0853 112.104 47.3104 112.104 45.4967C112.104 40.2994 116.622 36.0824 122.162 36.0824C124.099 36.0856 125.994 36.6108 127.621 37.5953C129.247 38.5798 130.537 39.9819 131.334 41.634L143 30.7152C138.214 24.8191 130.66 21.0097 122.157 21.0097L122.168 21Z" fill="white" fill-opacity="0.6"/>
<path d="M19.7925 117.95C14.395 117.95 9.76132 116.092 5.85578 112.376C1.95023 108.659 0 104.19 0 98.9773C0 93.7646 1.94768 89.2951 5.85578 85.5788C9.76387 81.8625 14.4027 80.0019 19.7925 80.0019C22.2651 79.9669 24.72 80.4111 27.0144 81.3086C29.3088 82.2061 31.3967 83.539 33.1564 85.2295L29.396 88.8888C26.8227 86.4675 23.3691 85.1359 19.79 85.1849C15.8946 85.1849 12.5848 86.5228 9.8708 89.2159C8.55048 90.4917 7.5095 92.0146 6.81069 93.6928C6.11187 95.3709 5.76971 97.1694 5.80486 98.9798C5.80486 102.81 7.15423 106.058 9.8708 108.741C11.1474 110.045 12.6882 111.076 14.3956 111.77C16.1031 112.464 17.9399 112.805 19.79 112.772C23.7566 112.772 27.0333 111.533 29.643 108.972C31.1705 107.485 32.1889 105.255 32.5454 102.443H19.8002V97.2604H37.7341C37.9251 98.182 37.9887 99.2424 37.9887 100.481C37.9887 105.575 36.4535 109.613 33.3728 112.609C29.8797 116.164 25.353 117.935 19.7645 117.935L19.7925 117.95ZM61.4704 114.482C59.0262 116.811 56.0474 117.95 52.5288 117.95C49.0103 117.95 46.0264 116.786 43.5873 114.482C41.1483 112.178 39.9262 109.247 39.9262 105.761C39.9262 102.275 41.1483 99.3688 43.5873 97.0399C46.0264 94.711 49.0103 93.5713 52.5288 93.5713C56.0474 93.5713 59.0313 94.7358 61.4704 97.0399C63.9094 99.344 65.1315 102.282 65.1315 105.761C65.1315 109.239 63.9094 112.153 61.4704 114.482ZM47.5336 111.063C48.1688 111.734 48.9419 112.269 49.8029 112.631C50.6638 112.993 51.5934 113.176 52.5314 113.166C54.4663 113.166 56.1314 112.467 57.5292 111.06C58.9269 109.653 59.622 107.889 59.622 105.758C59.622 103.603 58.9346 101.824 57.5521 100.432C56.1696 99.0393 54.502 98.3505 52.5314 98.3505C51.5915 98.3365 50.659 98.5144 49.7942 98.8729C48.9294 99.2314 48.1515 99.7624 47.5107 100.432C46.1282 101.819 45.4408 103.593 45.4408 105.758C45.4408 107.884 46.1359 109.655 47.5336 111.06V111.063ZM88.9645 114.482C86.5203 116.811 83.5415 117.95 80.023 117.95C76.5044 117.95 73.5205 116.786 71.0815 114.482C68.6424 112.178 67.4203 109.247 67.4203 105.761C67.4203 102.275 68.6424 99.3688 71.0815 97.0399C73.5205 94.711 76.5044 93.5713 80.023 93.5713C83.5415 93.5713 86.5254 94.7358 88.9645 97.0399C91.4036 99.344 92.6256 102.282 92.6256 105.761C92.6256 109.239 91.4036 112.153 88.9645 114.482ZM75.0278 111.063C75.6629 111.734 76.436 112.269 77.297 112.631C78.158 112.993 79.0875 113.176 80.0255 113.166C81.9605 113.166 83.6255 112.467 85.0233 111.06C86.421 109.653 87.1161 107.889 87.1161 105.758C87.1161 103.603 86.4287 101.824 85.0462 100.432C83.6637 99.0393 81.9961 98.3505 80.0255 98.3505C79.0856 98.3365 78.1532 98.5144 77.2884 98.8729C76.4236 99.2314 75.6456 99.7624 75.0048 100.432C73.6224 101.819 72.935 103.593 72.935 105.758C72.935 107.884 73.63 109.655 75.0278 111.06V111.063ZM107.038 128.95C104.251 128.95 101.903 128.222 100.001 126.77C98.0995 125.318 96.7374 123.639 95.9125 121.721L100.719 119.781C101.223 120.955 101.992 121.974 103.095 122.838C104.197 123.703 105.488 124.132 107.046 124.132C109.139 124.132 110.784 123.512 111.967 122.281C113.151 121.05 113.75 119.268 113.75 116.954V115.22H113.559C112.031 117.071 109.798 118 106.949 118C103.747 118 100.941 116.811 98.5298 114.437C97.3586 113.315 96.4341 111.973 95.8126 110.493C95.1911 109.012 94.8855 107.424 94.9145 105.825C94.885 104.216 95.1901 102.618 95.8114 101.127C96.4327 99.6352 97.3573 98.2813 98.5298 97.1464C100.936 94.7606 103.749 93.5614 106.949 93.5614C108.375 93.5614 109.668 93.8216 110.824 94.3493C111.98 94.877 112.894 95.5236 113.559 96.2892H113.75V94.322H118.984V116.266C118.984 120.527 117.869 123.708 115.629 125.829C113.388 127.935 110.532 129 107.041 129L107.038 128.95ZM107.42 113.164C108.328 113.179 109.228 112.999 110.055 112.635C110.882 112.271 111.616 111.733 112.204 111.06C113.487 109.655 114.129 107.906 114.129 105.803C114.129 103.677 113.487 101.898 112.204 100.476C111.62 99.7976 110.887 99.2547 110.059 98.8869C109.232 98.5191 108.33 98.3359 107.42 98.3505C105.485 98.3505 103.836 99.064 102.476 100.476C101.117 101.888 100.429 103.667 100.429 105.803C100.429 107.899 101.109 109.655 102.476 111.06C103.843 112.465 105.488 113.164 107.42 113.164ZM128.303 81.2902V117.214H122.785V81.2902H128.303ZM143.426 117.948C139.872 117.948 136.908 116.773 134.53 114.43C132.152 112.086 130.961 109.187 130.961 105.729C130.961 102.151 132.106 99.2127 134.408 96.9333C135.488 95.8277 136.791 94.9521 138.237 94.3619C139.682 93.7717 141.237 93.4797 142.805 93.5045C144.324 93.5045 145.74 93.772 147.039 94.3146C148.246 94.796 149.344 95.503 150.272 96.3957C151.046 97.1451 151.732 97.9751 152.319 98.8708C152.804 99.6362 153.218 100.442 153.556 101.279L154.129 102.666L137.341 109.435C138.614 111.903 140.651 113.139 143.431 113.139C145.967 113.139 148.031 112.017 149.612 109.762L153.89 112.542C152.935 113.929 151.591 115.18 149.847 116.29C148.103 117.4 145.956 117.95 143.421 117.95L143.426 117.948ZM136.434 105.362L147.637 100.828C147.316 100.055 146.736 99.4307 145.855 98.955C144.969 98.4721 143.967 98.226 142.952 98.2415C141.333 98.2415 139.821 98.8856 138.413 100.181C137.005 101.477 136.325 103.209 136.389 105.364L136.434 105.362ZM183.102 117.948C178.087 117.948 173.886 116.298 170.495 112.993C167.103 109.688 165.403 105.572 165.403 100.635C165.403 95.6971 167.098 91.5769 170.495 88.2769C173.891 84.9768 178.089 83.3218 183.102 83.3218C188.238 83.3218 192.411 85.1304 195.611 88.7352L192.568 91.6091C190.277 88.7996 187.095 87.3973 183.097 87.3973C179.38 87.3973 176.259 88.6163 173.677 91.0567C171.096 93.497 169.848 96.6856 169.848 100.635C169.848 104.584 171.121 107.78 173.677 110.223C176.233 112.666 179.362 113.882 183.097 113.882C187.186 113.882 190.677 112.277 193.536 109.071L196.578 112.031C194.984 113.883 192.983 115.362 190.723 116.36C188.325 117.433 185.713 117.976 183.074 117.95L183.102 117.948ZM204.886 117.214H200.507V84.0725H204.886V117.214ZM212.022 97.2455C214.276 94.9489 217.114 93.7943 220.633 93.7943C224.151 93.7943 226.99 94.9464 229.243 97.2455C231.497 99.5447 232.622 102.448 232.622 105.88C232.622 109.311 231.502 112.215 229.243 114.514C226.985 116.813 224.151 117.965 220.633 117.965C217.114 117.965 214.276 116.813 212.022 114.514C209.769 112.215 208.644 109.311 208.644 105.88C208.644 102.448 209.764 99.5447 212.022 97.2455ZM215.281 111.821C216.809 113.315 218.576 114.065 220.628 114.065C222.68 114.065 224.447 113.315 225.974 111.821C227.502 110.327 228.235 108.34 228.235 105.875C228.235 103.41 227.479 101.42 225.974 99.9287C224.47 98.4372 222.68 97.684 220.628 97.684C218.576 97.684 216.809 98.4347 215.281 99.9287C213.754 101.423 213.02 103.41 213.02 105.875C213.02 108.34 213.777 110.329 215.281 111.821ZM256.832 117.214H252.644V114.068H252.453C251.791 115.146 250.772 116.067 249.41 116.793C248.048 117.519 246.61 117.933 245.082 117.933C242.162 117.933 239.954 117.071 238.45 115.339C236.945 113.607 236.189 111.293 236.189 108.394V94.5054H240.568V107.696C240.568 111.927 242.485 114.038 246.322 114.038C247.181 114.056 248.031 113.872 248.801 113.502C249.572 113.132 250.239 112.587 250.747 111.912C251.879 110.516 252.483 108.783 252.458 107.005V94.5054H256.837V117.192L256.832 117.214ZM271.67 117.95C268.658 117.95 266.053 116.791 263.869 114.477C261.684 112.163 260.59 109.294 260.59 105.865C260.59 102.436 261.684 99.567 263.869 97.253C266.053 94.9389 268.66 93.7795 271.67 93.7795C273.442 93.7795 275.041 94.1511 276.456 94.8869C277.872 95.6227 278.926 96.5518 279.621 97.6667H279.812L279.621 94.5202V84.0651H284V117.214H279.812V114.068H279.621C278.926 115.175 277.872 116.104 276.456 116.848C275.043 117.576 273.444 117.95 271.67 117.95ZM272.383 114.061C273.371 114.074 274.35 113.882 275.257 113.499C276.163 113.116 276.976 112.55 277.64 111.838C279.084 110.359 279.804 108.365 279.804 105.892C279.804 103.42 279.086 101.4 277.64 99.946C276.976 99.2344 276.163 98.6682 275.257 98.2851C274.35 97.902 273.371 97.7106 272.383 97.7237C270.351 97.7237 268.607 98.4744 267.148 99.9683C265.689 101.462 264.964 103.449 264.964 105.914C264.964 108.38 265.689 110.369 267.148 111.86C267.807 112.575 268.615 113.144 269.517 113.531C270.42 113.918 271.396 114.114 272.383 114.105V114.061Z" fill="white" fill-opacity="0.6"/>
</svg>
