<svg width="1024" height="181" viewBox="0 0 1024 181" fill="none" xmlns="http://www.w3.org/2000/svg">
<path d="M167.563 43.0994C166.553 39.8673 164.129 37.2413 161.099 35.6252L99.488 6.13264C97.872 5.32462 96.054 5.12262 94.4379 5.12262C92.8219 5.12262 91.0038 5.12262 89.3878 5.52663L27.7766 35.2212C24.7465 36.6353 22.5244 39.2613 21.7164 42.6954L6.56612 109.155C5.96011 112.589 6.76812 116.023 8.78816 118.851L51.411 171.574C53.8351 173.998 57.2692 175.614 60.7032 175.816H128.577C132.213 176.22 135.647 174.604 137.869 171.574L180.492 118.851C182.512 116.023 183.32 112.589 182.916 109.155L167.563 43.0994Z" fill="white" fill-opacity="0.6"/>
<path d="M158.069 106.529C157.867 106.529 157.665 106.529 157.665 106.327C157.665 106.125 157.261 106.125 156.857 106.125C156.049 105.923 155.241 105.923 154.433 105.923C154.029 105.923 153.625 105.923 153.221 105.721H153.019C150.797 105.519 148.373 105.115 146.151 104.509C145.545 104.307 144.939 103.701 144.737 103.095L143.121 102.691C143.929 96.8325 143.525 90.7724 142.313 84.9143C140.899 79.0561 138.475 73.4 135.243 68.3499L136.455 67.1379V66.9359C136.455 66.3299 136.657 65.5219 137.061 65.1179C138.879 63.5018 140.697 62.2898 142.717 61.0778C143.121 60.8758 143.525 60.6738 143.929 60.4718C144.737 60.0678 145.343 59.6637 146.151 59.2597C146.353 59.0577 146.555 59.0577 146.757 58.8557C146.959 58.6537 146.757 58.6537 146.757 58.4517C148.575 57.0377 148.979 54.6136 147.565 52.7956C146.959 51.9876 145.747 51.3816 144.737 51.3816C143.727 51.3816 142.717 51.7856 141.909 52.3916L141.707 52.5936C141.505 52.7956 141.303 52.9976 141.101 52.9976C140.495 53.6036 139.889 54.2096 139.485 54.8156C139.283 55.2197 138.879 55.4217 138.677 55.6237C137.263 57.2397 135.445 58.8557 133.627 60.0678C133.223 60.2698 132.819 60.4718 132.415 60.4718C132.213 60.4718 131.809 60.4718 131.607 60.2698H131.405L129.789 61.2798C128.173 59.6637 126.355 58.0477 124.739 56.4317C117.264 50.5736 107.972 46.9375 98.478 45.9275L98.276 44.3114V44.5134C97.67 44.1094 97.468 43.5034 97.266 42.8974C97.266 40.6754 97.266 38.4533 97.67 36.0293V35.8273C97.67 35.4232 97.872 35.0192 97.872 34.6152C98.074 33.8072 98.074 32.9992 98.276 32.1912V30.9792C98.478 28.9591 96.8619 26.9391 94.8419 26.7371C93.6299 26.5351 92.4179 27.1411 91.4078 28.1511C90.5998 28.9591 90.1958 29.9691 90.1958 30.9792V31.9892C90.1958 32.7972 90.3978 33.6052 90.5998 34.4132C90.8018 34.8172 90.8018 35.2212 90.8018 35.6253V35.8273C91.2058 38.0493 91.2058 40.2713 91.2058 42.6954C91.0038 43.3014 90.8018 43.9074 90.1958 44.3114V44.7154L89.9938 46.3315C87.7718 46.5335 85.5497 46.9375 83.1257 47.3415C73.6315 49.3615 64.9453 54.4116 58.2792 61.4818L57.0671 60.6738H56.8651C56.6631 60.6738 56.4611 60.8758 56.0571 60.8758C55.6531 60.8758 55.2491 60.6738 54.8451 60.4718C53.027 59.0577 51.209 57.4417 49.795 55.8257C49.593 55.4217 49.189 55.2197 48.987 55.0177C48.381 54.4116 47.9769 53.8056 47.3709 53.1996C47.1689 52.9976 46.9669 52.9976 46.7649 52.7956C46.5629 52.5936 46.5629 52.5936 46.5629 52.5936C45.7549 51.9876 44.7449 51.5836 43.7349 51.5836C42.5228 51.5836 41.5128 51.9876 40.9068 52.9976C39.6948 54.8156 40.0988 57.2397 41.7148 58.6537C41.9168 58.6537 41.9168 58.8557 41.9168 58.8557C41.9168 58.8557 42.3208 59.2597 42.5228 59.2597C43.1288 59.6637 43.9369 60.0678 44.7449 60.4718C45.1489 60.6738 45.5529 60.8758 45.9569 61.0778C47.9769 62.2898 49.997 63.5018 51.613 65.1179C52.017 65.5219 52.421 66.3299 52.219 66.9359V66.7339L53.4311 67.9459C53.2291 68.3499 53.027 68.5519 52.825 68.9559C46.5629 78.8541 43.9369 90.5704 45.7549 102.085L44.1389 102.489C44.1389 102.691 43.9369 102.691 43.9369 102.691C43.7349 103.297 43.1288 103.701 42.5228 104.105C40.3008 104.711 38.0787 105.115 35.6547 105.317C35.2507 105.317 34.8467 105.317 34.4427 105.519C33.6347 105.519 32.8266 105.721 32.0186 105.721C31.8166 105.721 31.6146 105.923 31.2106 105.923C31.0086 105.923 31.0086 105.923 30.8066 106.125C28.5845 106.529 27.1705 108.549 27.5745 110.771C27.9785 112.589 29.7966 113.801 31.6146 113.599C32.0186 113.599 32.2206 113.599 32.6246 113.397C32.8266 113.397 32.8266 113.397 32.8266 113.195C32.8266 112.993 33.4326 113.195 33.6347 113.195C34.4427 112.993 35.2507 112.589 35.8567 112.387C36.2607 112.185 36.6647 111.983 37.0687 111.983H37.2707C39.4928 111.175 41.5128 110.569 43.9369 110.165H44.1389C44.7449 110.165 45.3509 110.367 45.7549 110.771C45.9569 110.771 45.9569 110.973 45.9569 110.973L47.7749 110.771C50.805 120.063 56.4611 128.345 64.3393 134.405C66.1573 135.819 67.7734 137.031 69.7934 138.041L68.7834 139.455C68.7834 139.657 68.9854 139.657 68.9854 139.657C69.3894 140.263 69.3894 141.071 69.1874 141.677C68.3794 143.697 67.1673 145.718 65.9553 147.536V147.738C65.7533 148.142 65.5513 148.344 65.1473 148.748C64.7433 149.152 64.3393 149.96 63.7333 150.768C63.5313 150.97 63.5313 151.172 63.3293 151.374C63.3293 151.374 63.3293 151.576 63.1273 151.576C62.1172 153.596 62.9253 156.02 64.7433 157.03C65.1473 157.232 65.7533 157.434 66.1573 157.434C67.7734 157.434 69.1874 156.424 69.9954 155.01C69.9954 155.01 69.9954 154.808 70.1974 154.808C70.1974 154.606 70.3994 154.404 70.6014 154.202C70.8034 153.394 71.2074 152.788 71.4094 151.98L71.8134 150.768C72.4194 148.546 73.4295 146.526 74.4395 144.505C74.8435 143.899 75.4495 143.495 76.0555 143.293C76.2575 143.293 76.2575 143.293 76.2575 143.091L77.0655 141.475C82.7217 143.697 88.5798 144.707 94.6399 144.707C98.276 144.707 101.912 144.303 105.548 143.293C107.77 142.889 109.992 142.081 112.012 141.475L112.82 142.889C113.022 142.889 113.022 142.889 113.022 143.091C113.628 143.293 114.234 143.697 114.638 144.303C115.648 146.324 116.658 148.344 117.264 150.566V150.768L117.668 151.98C117.87 152.788 118.072 153.596 118.476 154.202C118.678 154.404 118.678 154.606 118.88 154.808C118.88 154.808 118.88 155.01 119.082 155.01C119.89 156.424 121.304 157.434 122.92 157.434C123.526 157.434 123.931 157.232 124.537 157.03C125.345 156.626 126.153 155.818 126.355 154.808C126.557 153.798 126.557 152.788 126.153 151.778C126.153 151.576 125.951 151.576 125.951 151.576C125.951 151.374 125.749 151.172 125.547 150.97C125.143 150.162 124.739 149.556 124.133 148.95C123.931 148.546 123.728 148.344 123.324 147.94V147.536C121.91 145.718 120.9 143.697 120.092 141.677C119.89 141.071 119.89 140.263 120.294 139.657C120.294 139.455 120.496 139.455 120.496 139.455L119.89 137.839C130.193 131.577 138.071 121.881 141.707 110.367L143.323 110.569C143.525 110.569 143.525 110.367 143.525 110.367C143.929 109.963 144.535 109.761 145.141 109.761H145.343C147.565 110.165 149.787 110.771 151.807 111.579H152.009C152.413 111.781 152.817 111.983 153.221 111.983C154.029 112.387 154.635 112.791 155.443 112.993C155.645 112.993 155.847 113.195 156.251 113.195C156.453 113.195 156.453 113.195 156.655 113.397C157.059 113.599 157.261 113.599 157.665 113.599C159.483 113.599 161.099 112.387 161.705 110.771C161.503 108.549 159.887 106.933 158.069 106.529ZM99.69 100.267L94.2359 102.893L88.7818 100.267L87.3678 94.4085L91.2058 89.5604H97.266L101.104 94.4085L99.69 100.267ZM132.617 87.1363C133.627 91.3784 133.829 95.6205 133.425 99.8626L114.234 94.4085C112.416 94.0045 111.406 92.1864 111.81 90.3684C112.012 89.7624 112.214 89.3584 112.618 88.9543L127.769 75.2181C129.991 78.8541 131.607 82.8942 132.617 87.1363ZM121.708 67.7439L105.144 79.4601C103.73 80.2682 101.71 80.0662 100.7 78.6521C100.296 78.2481 100.094 77.8441 100.094 77.2381L98.882 56.8357C107.77 57.8457 115.648 61.6838 121.708 67.7439ZM85.1457 57.4417L89.1858 56.6337L88.1758 76.8341C88.1758 78.6521 86.5597 80.0662 84.7417 80.0662C84.1357 80.0662 83.7317 79.8642 83.1257 79.6622L66.3593 67.7439C71.6114 62.6938 78.0756 59.0577 85.1457 57.4417ZM60.5012 75.2181L75.4495 88.5503C76.8635 89.7624 77.0655 91.7824 75.8535 93.1964C75.4495 93.8024 75.0455 94.0044 74.2375 94.2065L54.6431 99.8626C54.0371 91.3784 56.0571 82.6922 60.5012 75.2181ZM57.0671 109.357L77.0655 105.923C78.6816 105.923 80.2976 106.933 80.4996 108.549C80.7016 109.155 80.7016 109.963 80.2976 110.569L72.6215 129.153C65.5513 124.507 59.8952 117.437 57.0671 109.357ZM102.922 134.405C100.094 135.011 97.266 135.415 94.2359 135.415C89.9938 135.415 85.5497 134.607 81.5096 133.395L91.4078 115.417C92.4179 114.205 94.0339 113.801 95.4479 114.609C96.0539 115.013 96.4579 115.417 97.0639 116.023L106.76 133.597C105.548 133.799 104.336 134.001 102.922 134.405ZM127.567 116.831C124.537 121.679 120.294 125.921 115.446 128.951L107.568 109.963C107.164 108.347 107.972 106.731 109.386 106.125C109.992 105.923 110.598 105.721 111.204 105.721L131.405 109.155C130.395 111.983 129.183 114.609 127.567 116.831Z" fill="white" fill-opacity="0.6"/>
<path d="M985.074 131.375C987.902 131.577 990.932 131.173 993.558 130.163C995.174 129.355 996.184 127.537 995.982 125.719C995.78 123.699 994.568 121.881 992.75 121.275C989.72 119.457 986.286 117.841 982.852 116.831C979.418 115.619 976.388 114.205 973.56 112.791C970.934 111.579 968.712 109.963 966.49 107.943C964.47 105.923 963.056 103.701 962.046 101.075C960.834 98.0446 960.43 94.8125 960.43 91.5804C960.228 84.9143 963.258 78.4502 968.51 74.4101C973.964 70.168 981.236 68.1479 990.528 68.1479C994.972 68.1479 999.618 68.5519 1004.06 69.562C1007.5 70.168 1010.93 70.976 1014.36 72.188L1010.53 89.3584C1007.7 88.3484 1005.07 87.7423 1002.24 86.9343C999.013 86.1263 995.578 85.9243 992.346 85.9243C985.478 85.9243 982.044 87.7423 982.044 91.5804C982.044 92.3884 982.246 93.1965 982.448 94.0045C982.852 94.8125 983.458 95.4185 984.266 96.0245C985.074 96.6305 986.286 97.2365 987.7 98.0446C989.114 98.8526 991.134 99.6606 993.558 100.469C997.598 101.883 1001.64 103.701 1005.27 105.721C1008.1 107.135 1010.53 108.953 1012.55 111.377C1014.36 113.195 1015.58 115.417 1016.38 118.043C1017.19 120.871 1017.6 123.699 1017.6 126.527C1018 133.395 1014.77 140.061 1008.91 143.899C1003.25 147.738 995.174 149.758 984.67 149.758C978.812 149.96 973.156 149.354 967.5 147.94C964.268 147.132 961.238 146.122 958.208 145.112L961.844 127.335C965.48 128.749 969.318 129.961 973.156 130.769C977.196 130.971 981.034 131.375 985.074 131.375ZM873.77 109.155C873.568 103.095 874.78 97.0345 876.8 91.3784C878.618 86.5303 881.446 82.2882 885.082 78.4502C888.516 75.0161 892.354 72.39 896.798 70.774C901.242 68.956 905.889 68.1479 910.535 68.1479C921.443 68.1479 930.129 71.582 936.391 78.2482C942.653 84.9143 945.885 94.8125 945.885 107.741C945.885 108.953 945.885 110.367 945.683 111.983C945.683 113.599 945.481 114.811 945.481 116.023H896.192C896.596 120.265 898.818 124.305 902.454 126.729C906.899 129.557 912.151 130.971 917.403 130.769C921.241 130.769 925.281 130.365 929.119 129.759C932.351 129.153 935.583 128.143 938.613 126.729L941.643 144.506C940.229 145.314 938.613 145.718 936.997 146.324C934.775 146.93 932.553 147.536 930.331 147.738C927.907 148.142 925.483 148.546 922.655 148.95C920.029 149.152 917.201 149.354 914.373 149.354C908.111 149.556 902.051 148.546 896.192 146.324C891.344 144.506 887.102 141.677 883.466 138.041C880.032 134.405 877.608 129.961 875.992 125.315C874.578 119.861 873.77 114.407 873.77 109.155ZM924.877 100.873C924.877 99.0546 924.473 97.2365 923.867 95.4185C923.463 93.6005 922.453 92.1864 921.443 90.7724C920.231 89.3584 918.817 88.1464 917.201 87.3383C915.181 86.3283 913.161 85.9243 910.939 85.9243C908.717 85.9243 906.697 86.3283 904.677 87.3383C903.061 88.1464 901.444 89.1564 900.232 90.5704C899.02 91.9844 898.01 93.6005 897.404 95.4185C896.798 97.2365 896.394 99.0546 896.192 100.873H924.877ZM814.583 50.7756L836.399 47.3415V69.966H862.66V88.1463H836.399V115.215C836.197 119.053 837.005 122.891 838.823 126.123C840.439 128.749 843.671 130.163 848.721 130.163C851.145 130.163 853.57 129.961 855.792 129.557C858.216 129.153 860.438 128.547 862.66 127.739L865.69 144.708C862.862 145.92 859.832 146.728 856.802 147.536C852.964 148.344 848.923 148.748 844.883 148.748C839.833 148.95 834.783 148.142 830.137 146.324C826.501 144.91 823.269 142.485 820.845 139.657C818.421 136.627 816.805 132.991 815.795 129.153C814.785 124.709 814.381 120.063 814.583 115.619V50.7756ZM726.307 109.155C726.105 103.095 727.317 97.0345 729.337 91.3784C731.155 86.5303 733.983 82.2882 737.619 78.4502C741.053 75.0161 744.891 72.39 749.335 70.774C753.779 68.956 758.426 68.1479 763.072 68.1479C773.98 68.1479 782.666 71.582 788.928 78.2482C795.19 84.9143 798.422 94.8125 798.422 107.741C798.422 108.953 798.422 110.367 798.22 111.983C798.018 113.599 798.018 114.811 798.018 116.023H748.527C748.931 120.265 751.153 124.305 754.789 126.729C759.234 129.557 764.486 130.971 769.738 130.769C773.576 130.769 777.616 130.365 781.454 129.759C784.686 129.153 787.918 128.143 791.15 126.729L794.18 144.506C792.766 145.314 791.15 145.718 789.534 146.324C787.312 146.93 785.09 147.536 782.868 147.738C780.444 148.142 778.02 148.546 775.192 148.95C772.566 149.152 769.738 149.354 766.91 149.354C760.648 149.556 754.587 148.546 748.729 146.324C743.881 144.506 739.639 141.677 736.003 138.041C732.569 134.405 730.145 129.961 728.529 125.315C726.913 119.861 726.105 114.407 726.307 109.155ZM777.414 100.873C777.414 99.0546 777.01 97.2365 776.404 95.4185C776 93.6005 774.99 92.1864 773.98 90.7724C772.768 89.3584 771.354 88.1464 769.738 87.3383C767.718 86.3283 765.698 85.9243 763.476 85.9243C761.254 85.9243 759.234 86.3283 757.214 87.3383C755.598 88.1464 754.183 89.1564 752.971 90.5704C751.759 91.9844 750.749 93.6005 750.143 95.4185C749.537 97.2365 749.133 99.0546 748.931 100.873H777.414ZM643.485 72.592C648.131 71.38 652.979 70.37 657.827 69.562C663.888 68.5519 670.15 68.1479 676.21 68.1479C681.664 67.9459 687.118 68.956 692.37 70.774C696.41 72.188 700.046 74.6121 702.672 77.8441C705.298 81.0762 707.116 84.9143 708.126 88.9544C709.339 93.6005 709.743 98.4486 709.743 103.297V146.728H688.128V106.125C688.128 99.0546 687.118 94.2065 685.3 91.1764C683.482 88.3484 680.048 86.7323 674.998 86.7323C673.382 86.7323 671.766 86.7323 669.948 86.9343C668.13 86.9343 666.716 87.1363 665.302 87.3383V146.728H643.485V72.592ZM628.133 89.3584C626.113 88.9544 623.891 88.3484 621.265 87.9443C618.437 87.3383 615.609 87.1363 612.781 87.1363C611.165 87.1363 609.549 87.3383 607.73 87.5403C606.316 87.7423 604.902 87.9443 603.488 88.3484V147.132H581.672V74.0061C586.116 72.39 590.762 71.178 595.408 70.168C601.266 68.754 607.326 68.1479 613.185 68.3499C614.599 68.3499 616.013 68.5519 617.427 68.5519C619.043 68.5519 620.659 68.754 622.477 69.158C624.093 69.36 625.709 69.562 627.527 69.966C628.941 70.168 630.355 70.572 631.769 71.178L628.133 89.3584ZM492.588 109.155C492.386 103.095 493.598 97.0345 495.618 91.3784C497.436 86.5303 500.264 82.2882 503.9 78.4502C507.334 75.0161 511.172 72.39 515.617 70.774C520.061 68.956 524.707 68.1479 529.353 68.1479C540.261 68.1479 548.947 71.582 555.209 78.2482C561.472 84.9143 564.704 94.8125 564.704 107.539C564.704 108.751 564.704 110.165 564.502 111.781C564.3 113.397 564.3 114.609 564.3 115.821H514.809C515.213 120.063 517.435 124.103 521.071 126.527C525.515 129.355 530.767 130.769 536.019 130.567C539.857 130.567 543.897 130.163 547.735 129.557C550.967 128.951 554.199 127.941 557.229 126.729L560.259 144.506C558.845 145.314 557.229 145.718 555.613 146.324C553.391 146.93 551.169 147.536 548.947 147.738C546.523 148.142 544.099 148.546 541.271 148.95C538.645 149.152 535.817 149.354 532.989 149.354C526.727 149.556 520.667 148.546 514.809 146.324C509.96 144.506 505.718 141.677 502.082 138.041C498.648 134.405 496.224 129.961 494.608 125.315C493.396 119.861 492.588 114.609 492.588 109.155ZM543.897 100.873C543.897 99.0546 543.493 97.2365 542.887 95.4185C542.483 93.6005 541.473 92.1864 540.463 90.7724C539.251 89.3584 537.837 88.1464 536.221 87.3383C534.201 86.3283 532.181 85.9243 529.959 85.9243C527.737 85.9243 525.717 86.3283 523.697 87.3383C522.081 88.1464 520.465 89.1564 519.253 90.5704C518.041 91.9844 517.031 93.6005 516.425 95.4185C515.819 97.2365 515.415 99.0546 515.213 100.873H543.897ZM457.237 107.943C457.237 93.8025 451.985 86.9343 441.683 86.9343C439.461 86.9343 437.239 87.1363 435.017 87.7423C433.199 88.1464 431.381 88.9544 429.765 89.9644V129.557C430.775 129.759 432.189 129.961 433.805 130.163C435.421 130.365 437.239 130.365 439.259 130.365C444.511 130.769 449.561 128.547 452.793 124.305C455.823 119.457 457.439 113.801 457.237 107.943ZM479.458 108.751C479.458 114.407 478.65 120.063 476.63 125.517C475.014 130.365 472.388 134.607 468.954 138.243C465.318 141.879 461.075 144.708 456.429 146.526C450.975 148.546 445.319 149.354 439.461 149.354C436.835 149.354 434.007 149.152 431.179 148.95C428.351 148.748 425.523 148.344 422.695 148.142C420.069 147.738 417.443 147.334 414.816 146.728C412.19 146.324 409.968 145.718 408.15 144.91V36.8373L429.967 33.4032V71.784C432.391 70.774 435.017 69.966 437.643 69.36C440.471 68.754 443.299 68.5519 446.127 68.5519C451.177 68.5519 456.025 69.36 460.671 71.582C464.712 73.4001 468.348 76.2281 471.176 79.6622C474.206 83.5003 476.428 87.7423 477.64 92.3884C478.852 97.4385 479.458 103.095 479.458 108.751ZM387.344 144.304C382.698 145.516 377.85 146.526 373.002 147.132C366.941 148.142 360.679 148.546 354.619 148.546C348.963 148.748 343.509 147.738 338.257 145.92C334.217 144.303 330.783 141.879 327.955 138.647C325.329 135.213 323.511 131.375 322.501 127.133C321.289 122.487 320.885 117.437 320.885 112.589V69.966H342.701V110.165C342.701 117.235 343.711 122.285 345.529 125.315C347.347 128.345 350.781 129.961 355.831 129.961C357.447 129.961 359.063 129.961 360.881 129.759C362.699 129.557 364.113 129.557 365.527 129.153V69.966H387.344V144.304ZM260.081 97.8426C262.303 95.4185 264.323 92.9945 266.747 90.5704C268.97 87.9443 271.192 85.5203 273.414 83.0962C275.636 80.4702 277.656 78.2481 279.474 76.0261C281.292 73.8041 283.11 71.784 284.524 70.168H310.38C305.128 76.0261 300.078 81.8842 295.23 87.3383C290.18 92.7924 284.928 98.4486 279.07 104.105C282.302 107.135 285.332 110.165 288.16 113.599C291.19 117.235 294.22 120.871 297.25 124.911C300.078 128.749 302.906 132.789 305.33 136.627C307.754 140.465 309.774 144.102 311.39 147.334H286.342C284.726 144.708 282.908 142.081 280.888 139.051C278.868 136.021 276.646 132.991 274.626 129.759C272.404 126.729 269.98 123.699 267.353 120.871C265.131 118.245 262.707 115.821 260.081 113.801V147.536H238.265V36.8373L260.081 33.4032V97.8426Z" fill="white" fill-opacity="0.6"/>
</svg>
