<svg width="1278" height="389" viewBox="0 0 1278 389" fill="none" xmlns="http://www.w3.org/2000/svg">
<g filter="url(#filter0_d_0_59)">
<g opacity="0.3">
<path d="M290.227 239.6C285.227 229.9 281.327 219.9 278.427 209.7C278.494 208.833 278.561 207.933 278.627 207C281.327 218.1 285.127 229 290.227 239.6Z" fill="#EAEAEA"/>
</g>
<path fill-rule="evenodd" clip-rule="evenodd" d="M564.627 220.3C564.627 273.2 539.027 320 499.427 349.2C472.927 368.7 440.127 380.3 404.627 380.3C375.427 380.3 348.027 372.4 324.427 358.7C276.727 331 244.627 279.4 244.627 220.3C244.627 183.5 257.027 149.7 277.827 122.7C307.127 84.7 353.027 60.3 404.627 60.3C440.727 60.3 474.027 72.2 500.827 92.4C539.627 121.6 564.627 168 564.627 220.3ZM484.327 220.3C484.327 176.3 448.627 140.6 404.627 140.6C360.627 140.6 324.927 176.3 324.927 220.3C324.927 264.3 360.627 299.9 404.627 299.9C448.627 299.9 484.327 264.3 484.327 220.3Z" fill="url(#paint0_linear_0_59)"/>
<path d="M245.627 203C250.727 224.6 260.427 245.5 274.827 264.2C329.627 335.6 431.927 349 503.327 294.2C512.727 287.1 521.027 279.1 528.327 270.4C546.027 249.7 557.727 225.4 563.327 199.8C570.727 257.1 546.827 316.8 495.127 352.4C493.727 353.4 492.294 354.333 490.827 355.2C422.527 399 330.527 384.1 279.627 320.2C252.127 285.7 241.127 243.5 245.627 203Z" fill="url(#paint1_linear_0_59)"/>
<g opacity="0.3">
<path d="M564.227 208.5C558.227 232.4 546.927 255 530.327 274.4C523.027 283 514.727 291 505.327 298.2C433.927 353 331.627 339.6 276.827 268.2C269.827 259.1 263.927 249.5 259.227 239.6C263.527 248.1 268.827 256.3 274.827 264.2C329.627 335.6 431.927 349 503.327 294.2C512.727 287 521.027 279 528.327 270.4C546.027 249.7 557.727 225.4 563.327 199.7C563.727 202.633 564.027 205.567 564.227 208.5Z" fill="#EAEAEA"/>
</g>
<g opacity="0.2">
<path d="M500.827 92.4C431.027 85.9 349.727 114.6 311.627 181C263.427 264.9 324.427 358.7 324.427 358.7C276.727 331 244.627 279.4 244.627 220.3C244.627 183.5 257.027 149.7 277.827 122.7C307.127 84.7 353.027 60.3 404.627 60.3C440.727 60.3 474.027 72.2 500.827 92.4Z" fill="#1E023F"/>
</g>
<path d="M515.227 104.7C495.027 95.6 472.527 90.6 448.927 90.6C358.927 90.6 286.027 163.6 286.027 253.6C286.027 265.4 287.227 276.9 289.627 288C295.327 314.5 307.527 338.7 324.427 358.7C274.427 329.7 241.627 274.4 244.827 211.7C244.961 209.967 245.094 208.233 245.227 206.5C252.027 125.6 319.927 61.8 401.627 60.3C445.727 59.5 485.827 76.5 515.227 104.7Z" fill="url(#paint2_linear_0_59)"/>
<g opacity="0.3">
<path d="M515.227 104.7C495.027 95.6 472.527 90.6 448.927 90.6C358.927 90.6 286.027 163.6 286.027 253.6C286.027 265.4 287.227 276.9 289.627 288C295.327 314.5 307.527 338.7 324.427 358.7C322.827 357.767 321.261 356.833 319.727 355.9C303.127 336 291.227 312.2 285.627 286C283.227 274.9 282.027 263.4 282.027 251.6C282.027 161.6 354.927 88.6 444.927 88.6C468.527 88.6 491.027 93.6 511.227 102.7C500.327 92.2 487.827 83.2 474.227 76.2C489.427 83.5 503.227 93.1 515.227 104.7Z" fill="#EAEAEA"/>
</g>
<path d="M437.927 220.3C437.927 238.7 423.027 253.6 404.627 253.6C386.227 253.6 371.327 238.7 371.327 220.3C371.327 201.9 386.227 187 404.627 187C423.027 187 437.927 201.9 437.927 220.3Z" fill="url(#paint3_linear_0_59)"/>
<g opacity="0.2">
<path d="M564.627 220.3C564.627 273.2 539.027 320 499.427 349.2C527.327 287.5 533.027 197.8 472.427 146.2C375.927 64 280.027 121.3 277.827 122.7C307.127 84.7 353.027 60.3 404.627 60.3C493.027 60.3 564.627 131.9 564.627 220.3Z" fill="#1E023F"/>
</g>
<path d="M504.827 345C516.427 326.1 524.327 304.5 527.427 281.1C539.127 191.9 476.327 110 387.027 98.3C375.327 96.8 363.827 96.5 352.527 97.4C325.427 99.6 299.927 108.5 277.827 122.7C313.127 76.9 372.227 51.6 434.027 63C435.694 63.3333 437.361 63.6667 439.027 64C518.327 81.3 572.827 156.9 563.627 238.1C558.727 282 536.527 319.5 504.827 345Z" fill="url(#paint4_linear_0_59)"/>
<g opacity="0.3">
<path d="M387.027 98.3C375.327 96.8 363.827 96.5 352.527 97.4C325.427 99.6 299.927 108.5 277.827 122.7C279.294 120.833 280.794 118.967 282.327 117.1C303.827 103.9 328.427 95.5 354.527 93.4C365.827 92.5 377.327 92.8 389.027 94.3C478.327 106 541.127 187.9 529.427 277.1C526.927 296.1 521.227 314 512.927 330.1C520.127 315 525.127 298.6 527.427 281.1C539.127 191.9 476.327 110 387.027 98.3Z" fill="#EAEAEA"/>
</g>
<g opacity="0.3">
<path d="M512.827 330.3C511.161 333.767 509.394 337.133 507.527 340.4C507.327 340.667 507.094 340.867 506.827 341C508.961 337.533 510.961 333.967 512.827 330.3Z" fill="#EAEAEA"/>
</g>
<path d="M324.027 220.3C324.027 308.6 252.427 380.3 164.027 380.3C136.927 380.3 111.327 373.5 89.0275 361.6C88.8941 361.533 88.7608 361.467 88.6275 361.4C88.1608 361.133 87.6941 360.867 87.2275 360.6C86.0941 360 84.9608 359.367 83.8275 358.7C33.8275 329.7 0.927464 274.4 4.22746 211.7C4.29413 209.967 4.42747 208.233 4.62747 206.5C5.32747 197.8 6.82748 189.3 8.92748 181C26.2275 112.6 88.1275 61.6 160.927 60.3C205.127 59.5 245.227 76.5 274.627 104.7C275.494 105.5 276.327 106.3 277.127 107.1L220.327 163.9C205.927 149.5 186.027 140.6 164.027 140.6C118.227 140.6 81.5275 179.2 84.5275 225.6C87.1275 265.5 119.827 297.8 159.827 299.8C167.827 300.2 175.627 299.5 183.027 297.6C187.027 296.7 190.427 294.4 192.827 291.3C195.227 288.2 196.627 284.3 196.627 280.2C196.627 275.4 194.727 270.9 191.327 267.5L168.127 244.3C165.527 241.7 164.027 238.1 164.027 234.4C164.027 226.6 170.327 220.3 178.127 220.3H324.027Z" fill="url(#paint5_linear_0_59)"/>
<g opacity="0.2">
<path d="M324.027 220.3C324.027 308.6 252.427 380.3 164.027 380.3C136.927 380.3 111.327 373.5 89.0275 361.6C88.8941 361.533 88.7608 361.467 88.6275 361.4C88.1608 361.133 87.6941 360.867 87.2275 360.6C86.0941 360 84.9608 359.367 83.8275 358.7C33.8275 329.7 0.927464 274.4 4.22746 211.7C4.29413 209.967 4.42747 208.233 4.62747 206.5C5.32747 197.8 6.82748 189.3 8.92748 181C23.7275 250.4 73.1275 329.3 170.027 328.6C282.627 327.7 319.927 220.3 319.927 220.3H324.027Z" fill="#1E023F"/>
</g>
<path d="M324.027 220.3C324.027 308.6 252.427 380.3 164.027 380.3C134.827 380.3 107.327 372.4 83.8275 358.7C33.8275 329.7 0.927464 274.4 4.22746 211.7C4.29413 209.967 4.42747 208.233 4.62747 206.5C11.3275 238 27.0275 266.1 49.0275 288C78.5275 317.3 119.127 335.5 164.027 335.5C237.427 335.5 299.527 287 319.927 220.3H324.027Z" fill="url(#paint6_linear_0_59)"/>
<g opacity="0.4">
<path d="M324.027 220.3C324.027 221.633 323.994 222.967 323.927 224.3H321.927C301.527 291 239.427 339.5 166.027 339.5C121.127 339.5 80.5275 321.3 51.0275 292C37.9275 279 27.1275 263.8 19.0275 247C26.8275 262.2 37.0275 276 49.0275 288C78.5275 317.3 119.127 335.5 164.027 335.5C237.427 335.5 299.527 287 319.927 220.3H324.027Z" fill="#EAEAEA"/>
</g>
<g opacity="0.7">
<path d="M19.0275 247C13.6275 236.6 9.32745 225.5 6.32745 213.8C6.39412 212.733 6.49412 211.633 6.62746 210.5C9.32746 223.3 13.5275 235.5 19.0275 247Z" fill="#EAEAEA"/>
</g>
<g opacity="0.2">
<path d="M277.127 107.1C275.427 106.4 166.627 64.4 92.3275 150.3C19.1275 235 65.8275 347.2 87.2275 360.6C86.0941 360 84.9608 359.367 83.8275 358.7C33.8275 329.7 0.927464 274.4 4.22746 211.7C4.29413 209.967 4.42747 208.233 4.62747 206.5C11.4275 125.6 79.3275 61.8 160.927 60.3C205.127 59.5 245.227 76.5 274.627 104.7C275.494 105.5 276.327 106.3 277.127 107.1Z" fill="#1E023F"/>
</g>
<path d="M274.627 104.7C254.427 95.6 231.927 90.6 208.327 90.6C118.327 90.6 45.3275 163.6 45.3275 253.6C45.3275 265.4 46.6275 276.9 49.0275 288C54.7275 314.5 66.8275 338.7 83.8275 358.7C33.8275 329.7 0.927464 274.4 4.22746 211.7C4.29413 209.967 4.42747 208.233 4.62747 206.5C11.4275 125.6 79.3275 61.8 160.927 60.3C205.127 59.5 245.227 76.5 274.627 104.7Z" fill="url(#paint7_linear_0_59)"/>
<g opacity="0.7">
<path d="M274.627 104.7C254.427 95.6 231.927 90.6 208.327 90.6C118.327 90.6 45.3275 163.6 45.3275 253.6C45.3275 265.4 46.6275 276.9 49.0275 288C51.7275 300.7 55.9275 312.8 61.4275 324.3C54.9275 311.7 50.0275 298.2 47.0275 284C44.6275 272.9 43.3275 261.4 43.3275 249.6C43.3275 159.6 116.327 86.6 206.327 86.6C228.227 86.6 249.027 90.9 268.127 98.7C270.327 100.633 272.494 102.633 274.627 104.7Z" fill="#EAEAEA"/>
</g>
<path d="M325.527 33.3C325.527 46.3 315.027 56.8 302.027 56.8C289.027 56.8 278.527 46.3 278.527 33.3C278.527 20.4 289.027 9.89999 302.027 9.89999C315.027 9.89999 325.527 20.4 325.527 33.3Z" fill="url(#paint8_linear_0_59)"/>
<path d="M261.827 35.1C261.827 41.6 256.627 46.8 250.127 46.8C243.727 46.8 238.427 41.6 238.427 35.1C238.427 28.7 243.727 23.4 250.127 23.4C256.627 23.4 261.827 28.7 261.827 35.1Z" fill="url(#paint9_linear_0_59)"/>
<path d="M271.927 6.2C271.927 9.7 269.127 12.4 265.727 12.4C262.327 12.4 259.527 9.7 259.527 6.2C259.527 2.8 262.327 0 265.727 0C269.127 0 271.927 2.8 271.927 6.2Z" fill="url(#paint10_linear_0_59)"/>
</g>
<g filter="url(#filter1_d_0_59)">
<path d="M613.16 244V112.4H673.32C685.352 112.4 695.692 114.343 704.34 118.228C713.113 122.113 719.881 127.753 724.644 135.148C729.407 142.417 731.788 151.065 731.788 161.092C731.788 170.993 729.407 179.579 724.644 186.848C719.881 194.117 713.113 199.757 704.34 203.768C695.692 207.653 685.352 209.596 673.32 209.596H633.84L650.384 193.428V244H613.16ZM650.384 197.376L633.84 180.268H671.064C678.835 180.268 684.6 178.576 688.36 175.192C692.245 171.808 694.188 167.108 694.188 161.092C694.188 154.951 692.245 150.188 688.36 146.804C684.6 143.42 678.835 141.728 671.064 141.728H633.84L650.384 124.62V197.376ZM749.937 244V112.4H810.097C822.129 112.4 832.469 114.343 841.117 118.228C849.891 122.113 856.659 127.753 861.421 135.148C866.184 142.417 868.565 151.065 868.565 161.092C868.565 170.993 866.184 179.579 861.421 186.848C856.659 193.992 849.891 199.507 841.117 203.392C832.469 207.152 822.129 209.032 810.097 209.032H770.617L787.161 193.428V244H749.937ZM831.341 244L798.629 196.06H838.297L871.197 244H831.341ZM787.161 197.376L770.617 180.268H807.841C815.612 180.268 821.377 178.576 825.137 175.192C829.023 171.808 830.965 167.108 830.965 161.092C830.965 154.951 829.023 150.188 825.137 146.804C821.377 143.42 815.612 141.728 807.841 141.728H770.617L787.161 124.62V197.376ZM889.101 244V112.4H926.325V244H889.101ZM952.808 244V112.4H983.452L1037.97 201.888H1021.8L1074.82 112.4H1105.46L1105.84 244H1071.62L1071.25 164.476H1077.08L1037.41 231.028H1020.86L980.068 164.476H987.212V244H952.808ZM1166.4 163.348H1227.5V191.172H1166.4V163.348ZM1169.03 215.236H1237.84V244H1132.18V112.4H1235.39V141.164H1169.03V215.236Z" fill="url(#paint11_linear_0_59)"/>
</g>
<g filter="url(#filter2_d_0_59)">
<path d="M615.863 341V299.189H599.308V287.1H647.587V299.189H631.109V341H615.863ZM667.281 307.967H692.306V319.363H667.281V307.967ZM668.359 329.219H696.541V341H653.267V287.1H695.54V298.881H668.359V329.219ZM731.874 342.078C727.614 342.078 723.661 341.411 720.016 340.076C716.423 338.69 713.292 336.739 710.622 334.224C708.004 331.709 705.951 328.757 704.462 325.369C702.974 321.93 702.229 318.157 702.229 314.05C702.229 309.943 702.974 306.196 704.462 302.808C705.951 299.369 708.004 296.391 710.622 293.876C713.292 291.361 716.423 289.436 720.016 288.101C723.661 286.715 727.614 286.022 731.874 286.022C736.854 286.022 741.294 286.895 745.195 288.64C749.148 290.385 752.433 292.901 755.051 296.186L745.349 304.964C743.604 302.911 741.679 301.345 739.574 300.267C737.521 299.189 735.211 298.65 732.644 298.65C730.437 298.65 728.409 299.009 726.561 299.728C724.713 300.447 723.122 301.499 721.787 302.885C720.504 304.22 719.477 305.837 718.707 307.736C717.989 309.635 717.629 311.74 717.629 314.05C717.629 316.36 717.989 318.465 718.707 320.364C719.477 322.263 720.504 323.906 721.787 325.292C723.122 326.627 724.713 327.653 726.561 328.372C728.409 329.091 730.437 329.45 732.644 329.45C735.211 329.45 737.521 328.911 739.574 327.833C741.679 326.755 743.604 325.189 745.349 323.136L755.051 331.914C752.433 335.148 749.148 337.663 745.195 339.46C741.294 341.205 736.854 342.078 731.874 342.078ZM797.885 287.1H813.131V341H797.885V287.1ZM777.095 341H761.849V287.1H777.095V341ZM798.963 319.979H776.017V307.351H798.963V319.979ZM823.885 341V287.1H836.436L866.158 322.982H860.229V287.1H875.167V341H862.616L832.894 305.118H838.823V341H823.885ZM913.102 342.078C908.79 342.078 904.812 341.385 901.167 339.999C897.523 338.613 894.34 336.662 891.619 334.147C888.95 331.58 886.871 328.603 885.382 325.215C883.894 321.827 883.149 318.105 883.149 314.05C883.149 309.995 883.894 306.273 885.382 302.885C886.871 299.497 888.95 296.545 891.619 294.03C894.34 291.463 897.523 289.487 901.167 288.101C904.812 286.715 908.79 286.022 913.102 286.022C917.466 286.022 921.444 286.715 925.037 288.101C928.682 289.487 931.839 291.463 934.508 294.03C937.178 296.545 939.257 299.497 940.745 302.885C942.285 306.273 943.055 309.995 943.055 314.05C943.055 318.105 942.285 321.853 940.745 325.292C939.257 328.68 937.178 331.632 934.508 334.147C931.839 336.662 928.682 338.613 925.037 339.999C921.444 341.385 917.466 342.078 913.102 342.078ZM913.102 329.45C915.156 329.45 917.055 329.091 918.8 328.372C920.597 327.653 922.137 326.627 923.42 325.292C924.755 323.906 925.782 322.263 926.5 320.364C927.27 318.465 927.655 316.36 927.655 314.05C927.655 311.689 927.27 309.584 926.5 307.736C925.782 305.837 924.755 304.22 923.42 302.885C922.137 301.499 920.597 300.447 918.8 299.728C917.055 299.009 915.156 298.65 913.102 298.65C911.049 298.65 909.124 299.009 907.327 299.728C905.582 300.447 904.042 301.499 902.707 302.885C901.424 304.22 900.397 305.837 899.627 307.736C898.909 309.584 898.549 311.689 898.549 314.05C898.549 316.36 898.909 318.465 899.627 320.364C900.397 322.263 901.424 323.906 902.707 325.292C904.042 326.627 905.582 327.653 907.327 328.372C909.124 329.091 911.049 329.45 913.102 329.45ZM951.04 341V287.1H966.286V328.911H992.004V341H951.04ZM1024.39 342.078C1020.08 342.078 1016.1 341.385 1012.46 339.999C1008.81 338.613 1005.63 336.662 1002.91 334.147C1000.24 331.58 998.16 328.603 996.671 325.215C995.183 321.827 994.438 318.105 994.438 314.05C994.438 309.995 995.183 306.273 996.671 302.885C998.16 299.497 1000.24 296.545 1002.91 294.03C1005.63 291.463 1008.81 289.487 1012.46 288.101C1016.1 286.715 1020.08 286.022 1024.39 286.022C1028.75 286.022 1032.73 286.715 1036.33 288.101C1039.97 289.487 1043.13 291.463 1045.8 294.03C1048.47 296.545 1050.55 299.497 1052.03 302.885C1053.57 306.273 1054.34 309.995 1054.34 314.05C1054.34 318.105 1053.57 321.853 1052.03 325.292C1050.55 328.68 1048.47 331.632 1045.8 334.147C1043.13 336.662 1039.97 338.613 1036.33 339.999C1032.73 341.385 1028.75 342.078 1024.39 342.078ZM1024.39 329.45C1026.44 329.45 1028.34 329.091 1030.09 328.372C1031.89 327.653 1033.43 326.627 1034.71 325.292C1036.04 323.906 1037.07 322.263 1037.79 320.364C1038.56 318.465 1038.94 316.36 1038.94 314.05C1038.94 311.689 1038.56 309.584 1037.79 307.736C1037.07 305.837 1036.04 304.22 1034.71 302.885C1033.43 301.499 1031.89 300.447 1030.09 299.728C1028.34 299.009 1026.44 298.65 1024.39 298.65C1022.34 298.65 1020.41 299.009 1018.62 299.728C1016.87 300.447 1015.33 301.499 1014 302.885C1012.71 304.22 1011.69 305.837 1010.92 307.736C1010.2 309.584 1009.84 311.689 1009.84 314.05C1009.84 316.36 1010.2 318.465 1010.92 320.364C1011.69 322.263 1012.71 323.906 1014 325.292C1015.33 326.627 1016.87 327.653 1018.62 328.372C1020.41 329.091 1022.34 329.45 1024.39 329.45ZM1089.28 342.078C1085.02 342.078 1081.07 341.411 1077.42 340.076C1073.78 338.69 1070.62 336.739 1067.95 334.224C1065.33 331.709 1063.28 328.757 1061.79 325.369C1060.3 321.93 1059.56 318.157 1059.56 314.05C1059.56 309.943 1060.3 306.196 1061.79 302.808C1063.28 299.369 1065.36 296.391 1068.03 293.876C1070.7 291.361 1073.85 289.436 1077.5 288.101C1081.19 286.715 1085.22 286.022 1089.59 286.022C1094.67 286.022 1099.21 286.869 1103.22 288.563C1107.22 290.257 1110.53 292.695 1113.15 295.878L1103.45 304.656C1101.6 302.654 1099.6 301.165 1097.44 300.19C1095.34 299.163 1092.98 298.65 1090.36 298.65C1088.05 298.65 1085.94 299.009 1084.04 299.728C1082.14 300.447 1080.53 301.499 1079.19 302.885C1077.86 304.22 1076.81 305.837 1076.04 307.736C1075.32 309.584 1074.96 311.689 1074.96 314.05C1074.96 316.309 1075.32 318.388 1076.04 320.287C1076.81 322.186 1077.86 323.829 1079.19 325.215C1080.53 326.55 1082.12 327.602 1083.97 328.372C1085.87 329.091 1087.94 329.45 1090.2 329.45C1092.46 329.45 1094.67 329.091 1096.83 328.372C1098.98 327.602 1101.16 326.319 1103.37 324.522L1111.92 335.225C1108.84 337.432 1105.27 339.126 1101.21 340.307C1097.16 341.488 1093.18 342.078 1089.28 342.078ZM1098.44 333.223V312.895H1111.92V335.225L1098.44 333.223ZM1121.58 341V287.1H1136.83V341H1121.58ZM1161.69 307.967H1186.72V319.363H1161.69V307.967ZM1162.77 329.219H1190.95V341H1147.68V287.1H1189.95V298.881H1162.77V329.219ZM1218.35 342.078C1213.94 342.078 1209.68 341.539 1205.57 340.461C1201.52 339.332 1198.2 337.894 1195.64 336.149L1200.64 324.907C1203.06 326.447 1205.83 327.73 1208.96 328.757C1212.14 329.732 1215.3 330.22 1218.43 330.22C1220.53 330.22 1222.23 330.04 1223.51 329.681C1224.79 329.27 1225.72 328.757 1226.28 328.141C1226.9 327.474 1227.21 326.704 1227.21 325.831C1227.21 324.599 1226.64 323.624 1225.51 322.905C1224.38 322.186 1222.92 321.596 1221.12 321.134C1219.33 320.672 1217.33 320.21 1215.12 319.748C1212.96 319.286 1210.78 318.696 1208.57 317.977C1206.42 317.258 1204.44 316.334 1202.64 315.205C1200.85 314.024 1199.38 312.51 1198.26 310.662C1197.13 308.763 1196.56 306.376 1196.56 303.501C1196.56 300.267 1197.43 297.341 1199.18 294.723C1200.98 292.105 1203.65 290 1207.19 288.409C1210.73 286.818 1215.14 286.022 1220.43 286.022C1223.97 286.022 1227.44 286.433 1230.83 287.254C1234.27 288.024 1237.32 289.179 1239.99 290.719L1235.29 302.038C1232.73 300.652 1230.18 299.625 1227.67 298.958C1225.15 298.239 1222.72 297.88 1220.35 297.88C1218.25 297.88 1216.56 298.111 1215.27 298.573C1213.99 298.984 1213.07 299.548 1212.5 300.267C1211.94 300.986 1211.65 301.807 1211.65 302.731C1211.65 303.912 1212.19 304.861 1213.27 305.58C1214.4 306.247 1215.86 306.812 1217.66 307.274C1219.51 307.685 1221.51 308.121 1223.67 308.583C1225.87 309.045 1228.05 309.635 1230.21 310.354C1232.42 311.021 1234.42 311.945 1236.22 313.126C1238.01 314.255 1239.45 315.77 1240.53 317.669C1241.66 319.517 1242.22 321.853 1242.22 324.676C1242.22 327.807 1241.32 330.708 1239.53 333.377C1237.78 335.995 1235.14 338.1 1231.6 339.691C1228.11 341.282 1223.69 342.078 1218.35 342.078Z" fill="url(#paint12_linear_0_59)"/>
</g>
<defs>
<filter id="filter0_d_0_59" x="0" y="0" width="568.645" height="388.3" filterUnits="userSpaceOnUse" color-interpolation-filters="sRGB">
<feFlood flood-opacity="0" result="BackgroundImageFix"/>
<feColorMatrix in="SourceAlpha" type="matrix" values="0 0 0 0 0 0 0 0 0 0 0 0 0 0 0 0 0 0 127 0" result="hardAlpha"/>
<feOffset dy="4"/>
<feGaussianBlur stdDeviation="2"/>
<feComposite in2="hardAlpha" operator="out"/>
<feColorMatrix type="matrix" values="0 0 0 0 0 0 0 0 0 0 0 0 0 0 0 0 0 0 0.25 0"/>
<feBlend mode="normal" in2="BackgroundImageFix" result="effect1_dropShadow_0_59"/>
<feBlend mode="normal" in="SourceGraphic" in2="effect1_dropShadow_0_59" result="shape"/>
</filter>
<filter id="filter1_d_0_59" x="609.16" y="112.4" width="632.676" height="139.6" filterUnits="userSpaceOnUse" color-interpolation-filters="sRGB">
<feFlood flood-opacity="0" result="BackgroundImageFix"/>
<feColorMatrix in="SourceAlpha" type="matrix" values="0 0 0 0 0 0 0 0 0 0 0 0 0 0 0 0 0 0 127 0" result="hardAlpha"/>
<feOffset dy="4"/>
<feGaussianBlur stdDeviation="2"/>
<feComposite in2="hardAlpha" operator="out"/>
<feColorMatrix type="matrix" values="0 0 0 0 0 0 0 0 0 0 0 0 0 0 0 0 0 0 0.25 0"/>
<feBlend mode="normal" in2="BackgroundImageFix" result="effect1_dropShadow_0_59"/>
<feBlend mode="normal" in="SourceGraphic" in2="effect1_dropShadow_0_59" result="shape"/>
</filter>
<filter id="filter2_d_0_59" x="595.308" y="286.022" width="650.915" height="64.056" filterUnits="userSpaceOnUse" color-interpolation-filters="sRGB">
<feFlood flood-opacity="0" result="BackgroundImageFix"/>
<feColorMatrix in="SourceAlpha" type="matrix" values="0 0 0 0 0 0 0 0 0 0 0 0 0 0 0 0 0 0 127 0" result="hardAlpha"/>
<feOffset dy="4"/>
<feGaussianBlur stdDeviation="2"/>
<feComposite in2="hardAlpha" operator="out"/>
<feColorMatrix type="matrix" values="0 0 0 0 0 0 0 0 0 0 0 0 0 0 0 0 0 0 0.25 0"/>
<feBlend mode="normal" in2="BackgroundImageFix" result="effect1_dropShadow_0_59"/>
<feBlend mode="normal" in="SourceGraphic" in2="effect1_dropShadow_0_59" result="shape"/>
</filter>
<linearGradient id="paint0_linear_0_59" x1="244.627" y1="60.3" x2="564.627" y2="60.3" gradientUnits="userSpaceOnUse">
<stop stop-color="#21489F"/>
<stop offset="1" stop-color="#2B58A7"/>
</linearGradient>
<linearGradient id="paint1_linear_0_59" x1="244.627" y1="199.8" x2="564.627" y2="199.8" gradientUnits="userSpaceOnUse">
<stop stop-color="#5F4A9F"/>
<stop offset="1" stop-color="#F17785"/>
</linearGradient>
<linearGradient id="paint2_linear_0_59" x1="244.627" y1="60.3" x2="515.227" y2="60.3" gradientUnits="userSpaceOnUse">
<stop stop-color="#404CA0"/>
<stop offset="1" stop-color="#B42D93"/>
</linearGradient>
<linearGradient id="paint3_linear_0_59" x1="349.027" y1="198.1" x2="428.927" y2="158.4" gradientUnits="userSpaceOnUse">
<stop stop-color="#236AB4"/>
<stop offset="1" stop-color="#01B5BC"/>
</linearGradient>
<linearGradient id="paint4_linear_0_59" x1="277.827" y1="60.3" x2="564.627" y2="60.3" gradientUnits="userSpaceOnUse">
<stop stop-color="#5F4A9F"/>
<stop offset="1" stop-color="#ED388D"/>
</linearGradient>
<linearGradient id="paint5_linear_0_59" x1="4.02746" y1="60.3" x2="324.027" y2="60.3" gradientUnits="userSpaceOnUse">
<stop stop-color="#236AB4"/>
<stop offset="1" stop-color="#128FD0"/>
</linearGradient>
<linearGradient id="paint6_linear_0_59" x1="4.02746" y1="206.5" x2="324.027" y2="206.5" gradientUnits="userSpaceOnUse">
<stop stop-color="#236AB4"/>
<stop offset="1" stop-color="#01B5BC"/>
</linearGradient>
<linearGradient id="paint7_linear_0_59" x1="-187.573" y1="153.5" x2="99.3275" y2="-8.3" gradientUnits="userSpaceOnUse">
<stop stop-color="#236AB4"/>
<stop offset="1" stop-color="#01B5BC"/>
</linearGradient>
<linearGradient id="paint8_linear_0_59" x1="261.827" y1="26.1" x2="309.427" y2="-20.2" gradientUnits="userSpaceOnUse">
<stop stop-color="#5F4A9F"/>
<stop offset="1" stop-color="#F17785"/>
</linearGradient>
<linearGradient id="paint9_linear_0_59" x1="229.927" y1="29.2" x2="256.827" y2="11" gradientUnits="userSpaceOnUse">
<stop stop-color="#236AB4"/>
<stop offset="1" stop-color="#01B5BC"/>
</linearGradient>
<linearGradient id="paint10_linear_0_59" x1="259.527" y1="0" x2="271.927" y2="0" gradientUnits="userSpaceOnUse">
<stop stop-color="#236AB4"/>
<stop offset="1" stop-color="#128FD0"/>
</linearGradient>
<linearGradient id="paint11_linear_0_59" x1="600" y1="159.5" x2="1278" y2="159.5" gradientUnits="userSpaceOnUse">
<stop stop-color="#FC5C7D"/>
<stop offset="1" stop-color="#6A82FB"/>
</linearGradient>
<linearGradient id="paint12_linear_0_59" x1="599" y1="313.5" x2="1277" y2="313.5" gradientUnits="userSpaceOnUse">
<stop stop-color="#24C6DC"/>
<stop offset="1" stop-color="#514A9D"/>
</linearGradient>
</defs>
</svg>
